<?xml version="1.0" encoding="UTF-8" standalone="no"?>

<svg

   xmlns:dc="http://purl.org/dc/elements/1.1/"

   xmlns:cc="http://creativecommons.org/ns#"

   xmlns:rdf="http://www.w3.org/1999/02/22-rdf-syntax-ns#"

   xmlns:svg="http://www.w3.org/2000/svg"

   xmlns="http://www.w3.org/2000/svg"

   class="img-fluid"

   id="outputsvg"

   width="469.15726"

   height="467.48569"

   viewBox="0 0 4691.5726 4674.8569"

   version="1.1">

  <metadata

     id="metadata899">

    <rdf:RDF>

      <cc:Work

         rdf:about="">

        <dc:format>image/svg+xml</dc:format>

        <dc:type

           rdf:resource="http://purl.org/dc/dcmitype/StillImage" />

        <dc:title></dc:title>

      </cc:Work>

    </rdf:RDF>

  </metadata>

  <defs

     id="defs897" />

  <g

     id="layer1">

    <ellipse

       style="opacity:1;fill:#ffffff;fill-opacity:1;stroke-width:10"

       id="path901"

       cx="2412.0215"

       cy="2290.4358"

       rx="2165.3372"

       ry="2031.4607" />

  </g>

  <g

     id="layer2"

     style="display:inline">

    <g

       id="l72q4aD5RRwH0cv2uZNfvAC"

       fill="#214a98"

       transform="translate(-218.31561,-221.47437)">

      <g

         id="g886">

        <path

           id="paZKRpNca"

           d="m 2305,4885 c -136,-13 -196,-23 -330,-55 -83,-20 -225,-63 -260,-79 -11,-5 -60,-26 -109,-46 -48,-20 -107,-47 -130,-59 -22,-13 -67,-37 -98,-54 -83,-46 -211,-135 -313,-217 -118,-96 -316,-299 -375,-385 -8,-13 -20,-28 -26,-34 -13,-14 -123,-181 -142,-216 -39,-71 -103,-201 -122,-250 -12,-30 -26,-64 -31,-75 -24,-54 -40,-104 -75,-235 -98,-360 -101,-859 -8,-1210 36,-135 46,-166 55,-182 5,-10 9,-23 9,-30 0,-7 6,-24 13,-38 7,-14 21,-47 31,-75 46,-122 157,-321 258,-460 94,-131 98,-135 238,-276 138,-139 295,-265 442,-354 71,-44 244,-130 310,-155 29,-11 62,-24 73,-29 42,-18 142,-50 260,-81 207,-55 566,-83 795,-61 198,19 435,66 555,111 246,91 420,177 566,280 20,14 47,32 59,40 96,63 260,213 385,351 139,154 276,366 373,579 172,377 239,846 182,1275 -30,226 -55,331 -127,530 -126,347 -359,684 -643,929 -89,77 -191,156 -235,183 -11,6 -56,34 -100,60 -119,72 -281,150 -390,188 -27,9 -59,21 -70,26 -22,9 -66,22 -160,46 -246,63 -568,85 -860,58 z m 694,-462 c 34,-35 101,-133 101,-151 1,-4 9,-25 20,-47 11,-22 19,-46 20,-53 0,-7 4,-20 9,-30 9,-17 29,-85 54,-182 26,-98 69,-312 123,-605 9,-49 22,-121 29,-160 8,-38 21,-110 30,-160 9,-49 23,-120 31,-156 7,-37 14,-80 14,-96 0,-16 6,-37 14,-48 7,-11 16,-49 19,-85 14,-156 105,-526 159,-645 41,-90 111,-175 157,-190 11,-3 21,-11 21,-18 0,-10 -46,-140 -96,-269 -17,-45 -38,-102 -60,-160 -22,-61 -50,-112 -63,-116 -38,-13 -143,170 -191,333 -5,17 -18,62 -30,100 -11,39 -25,90 -30,115 -18,79 -64,303 -86,415 -8,44 -21,112 -29,150 -7,39 -20,106 -28,150 -9,44 -20,92 -26,108 l -11,27 -275,2 c -151,1 -292,2 -312,3 h -38 l -12,-105 c -7,-58 -17,-157 -23,-220 -31,-375 -99,-692 -186,-877 -24,-52 -52,-84 -40,-47 3,11 10,66 16,124 9,101 17,167 40,365 6,50 15,133 20,185 5,52 16,163 25,245 8,83 18,189 22,238 l 6,87 h -274 c -151,0 -298,3 -326,6 l -53,7 v -52 c 0,-29 4,-71 9,-94 5,-23 17,-78 26,-122 19,-97 43,-209 60,-290 8,-33 21,-96 31,-140 18,-82 74,-309 94,-380 61,-213 134,-349 200,-370 18,-6 20,-12 14,-58 -8,-64 -35,-175 -70,-283 -27,-84 -83,-177 -121,-202 -21,-13 -25,-11 -60,24 -75,76 -120,164 -172,334 -18,58 -37,120 -42,137 -6,18 -14,54 -19,80 -5,27 -17,82 -25,123 -20,92 -40,197 -60,310 -22,127 -43,236 -61,325 -8,44 -19,103 -24,131 -4,28 -13,77 -19,110 -7,32 -19,95 -27,139 -13,68 -28,140 -50,242 l -4,23 -328,2 -327,3 -3,33 c -3,28 0,32 20,33 13,0 147,0 298,-1 151,-1 283,2 293,5 33,13 16,117 -57,347 -39,123 -129,250 -186,263 -16,3 -27,12 -25,18 10,32 129,356 141,384 8,17 14,36 14,42 0,6 4,19 10,29 5,9 17,34 26,55 20,46 43,48 84,5 30,-32 101,-167 115,-218 3,-14 10,-34 15,-45 8,-18 34,-108 60,-205 17,-62 38,-161 69,-320 17,-85 38,-191 47,-235 9,-44 18,-90 20,-102 l 4,-23 h 340 c 321,0 340,1 349,19 6,10 17,85 26,167 22,215 58,459 75,508 6,16 10,39 10,51 0,40 60,225 98,305 25,51 27,53 30,27 2,-15 -2,-67 -8,-115 -14,-110 -38,-337 -50,-465 -5,-54 -13,-130 -19,-170 -6,-40 -12,-128 -13,-197 l -3,-125 h 290 290 l 3,32 c 3,27 -13,113 -59,328 -8,39 -26,120 -53,240 -40,176 -114,401 -158,485 -37,68 -63,96 -94,104 -34,9 -33,29 10,201 20,84 35,137 46,160 5,11 18,41 30,67 24,55 75,118 97,118 8,0 31,-17 52,-37 z M 4355,2685 v -30 l -412,-3 -413,-2 v 35 35 l 413,-2 412,-3 z" />

      </g>

    </g>

  </g>

</svg>

